<?xml version="1.0" encoding="UTF-8" standalone="no"?>
<!-- Created with Inkscape (http://www.inkscape.org/) -->

<svg
   width="53.109241mm"
   height="51.186901mm"
   viewBox="0 0 53.109241 51.186901"
   version="1.1"
   id="svg311"
   sodipodi:docname="logo-lxp-nb.svg"
   inkscape:version="1.1.2 (0a00cf5339, 2022-02-04)"
   inkscape:export-filename="/home/davy/Bureau/logo-nb.png"
   inkscape:export-xdpi="150"
   inkscape:export-ydpi="150"
   xmlns:inkscape="http://www.inkscape.org/namespaces/inkscape"
   xmlns:sodipodi="http://sodipodi.sourceforge.net/DTD/sodipodi-0.dtd"
   xmlns="http://www.w3.org/2000/svg"
   xmlns:svg="http://www.w3.org/2000/svg">
  <sodipodi:namedview
     id="namedview313"
     pagecolor="#ffffff"
     bordercolor="#666666"
     borderopacity="1.0"
     inkscape:pageshadow="2"
     inkscape:pageopacity="0.0"
     inkscape:pagecheckerboard="0"
     inkscape:document-units="mm"
     showgrid="false"
     fit-margin-left="1"
     fit-margin-top="1"
     fit-margin-right="1"
     fit-margin-bottom="1"
     inkscape:zoom="2.1565987"
     inkscape:cx="81.146298"
     inkscape:cy="127.51561"
     inkscape:window-width="1600"
     inkscape:window-height="832"
     inkscape:window-x="0"
     inkscape:window-y="0"
     inkscape:window-maximized="1"
     inkscape:current-layer="layer1"
     inkscape:snap-others="true" />
  <defs
     id="defs308" />
  <g
     inkscape:groupmode="layer"
     id="layer3"
     inkscape:label="fond"
     transform="translate(-75.99261,-70.181795)"
     style="display:inline">
    <rect
       style="fill:#000000;fill-opacity:1;stroke-width:0.264583"
       id="rect1328"
       width="55.633274"
       height="53.997559"
       x="74.664612"
       y="68.602356"
       inkscape:export-filename="/home/linux/Images/logo.jpg"
       inkscape:export-xdpi="300.2135"
       inkscape:export-ydpi="300.2135" />
  </g>
  <g
     inkscape:label="Calque 1"
     inkscape:groupmode="layer"
     id="layer1"
     transform="translate(-75.99261,-70.181795)">
    <path
       style="fill:#ffffff;stroke-width:0.264583"
       d="m 78.47845,120.02536 c -0.07131,-0.18583 -0.09734,-2.77544 -0.05784,-5.75468 l 0.07181,-5.41682 1.290021,2.24896 c 2.604905,4.54126 3.026322,5.15937 3.517559,5.15937 0.449733,0 0.483166,-0.30512 0.471114,-4.29947 l -0.01297,-4.29948 h 0.740577 0.740576 v 5.95312 c 0,3.27422 -0.07557,5.95313 -0.167931,5.95313 -0.09236,0 -1.281932,-1.09247 -2.643489,-2.4277 -1.361556,-1.33523 -2.55315,-2.35009 -2.647986,-2.25526 -0.09484,0.0948 -0.03636,0.84997 0.129947,1.67807 0.166307,0.8281 0.302376,2.02157 0.302376,2.65214 0,1.10013 -0.03243,1.1465 -0.802054,1.1465 -0.44113,0 -0.860398,-0.15205 -0.931708,-0.33788 z m 14.459948,-0.25471 c -0.131588,-0.3461 -0.388751,-1.12826 -0.571474,-1.73814 l -0.332222,-1.10886 h -1.371226 -1.371224 l -0.325662,1.45521 c -0.285325,1.27496 -0.40524,1.45521 -0.968145,1.45521 -0.353365,0 -0.642483,-0.13106 -0.642483,-0.29125 0,-0.57994 1.649642,-5.93658 2.430495,-7.89218 0.439884,-1.10167 0.912171,-2.29382 1.049527,-2.64922 0.239764,-0.62039 0.274087,-0.59364 0.85944,0.66978 0.545052,1.17644 2.387262,8.21206 2.591773,9.89829 0.113951,0.93954 -1.004639,1.10637 -1.348799,0.20116 z m -1.706508,-4.4345 c 0.563682,0 0.629647,-0.0851 0.461677,-0.59531 -0.107784,-0.32742 -0.266656,-1.01203 -0.353047,-1.52135 -0.207644,-1.22416 -0.578258,-1.07022 -1.119781,0.46514 -0.575276,1.63106 -0.588985,2.01319 -0.06501,1.81212 0.230184,-0.0883 0.714457,-0.1606 1.076164,-0.1606 z m 6.799453,4.83115 c -1.726801,-0.0828 -1.905887,-0.14484 -2.047421,-0.70875 -0.131679,-0.52465 0.265904,-2.03862 1.030469,-3.92396 0.132521,-0.32678 0.06266,-0.46302 -0.237413,-0.46302 -0.691017,0 -0.572476,-1.59852 0.132207,-1.7828 0.602248,-0.15749 2.218138,-3.34955 1.930888,-3.81433 -0.0927,-0.14995 -0.74826,-0.18166 -1.587654,-0.0768 l -1.42979,0.17864 v -0.79869 -0.7987 l 2.579684,-0.10682 c 1.41883,-0.0588 2.687657,-0.0159 2.819617,0.0953 0.13584,0.11445 -0.29463,1.30786 -0.99219,2.7507 -0.677657,1.4017 -1.232107,2.59747 -1.232107,2.65726 0,0.0598 0.23812,0.10871 0.52916,0.10871 0.41158,0 0.529167,0.17639 0.529167,0.79375 0,0.7289 -0.0747,0.79375 -0.914837,0.79375 -0.90193,0 -0.92246,0.0256 -1.455207,1.81446 -0.526005,1.76623 -0.644828,2.41887 -0.440391,2.41887 0.05499,0 0.527415,-0.17859 1.049838,-0.39687 0.52242,-0.21828 1.65417,-0.39688 2.515007,-0.39688 1.45061,0 1.57421,0.0474 1.68899,0.64784 0.17086,0.8938 -0.24651,1.21337 -1.50413,1.15167 -0.58936,-0.0289 -1.923107,-0.0934 -2.963887,-0.14336 z m 20.033687,-1.65831 c -0.47007,-1.01984 -0.96395,-1.78672 -1.0975,-1.70418 -0.13355,0.0825 -0.24282,0.79789 -0.24282,1.58967 0,1.35917 -0.037,1.43959 -0.66146,1.43959 h -0.66146 v -5.81678 -5.81677 l 1.65365,0.16678 c 3.0055,0.30314 3.51733,0.82979 3.13807,3.22896 -0.25968,1.64276 -0.89419,2.64168 -1.90089,2.99262 -0.42579,0.14843 -0.77416,0.31247 -0.77416,0.36453 0,0.0521 0.30894,0.54643 0.68654,1.0986 0.67116,0.98147 2.22388,3.89393 2.22388,4.17139 0,0.0769 -0.33956,0.13984 -0.75458,0.13984 -0.67664,0 -0.84287,-0.19154 -1.60927,-1.85425 z m 0.0751,-6.15886 c 0.61434,-1.25754 0.4139,-2.23488 -0.50568,-2.46568 -0.36836,-0.0925 -0.74815,-0.0897 -0.84397,0.006 -0.0958,0.0958 -0.22386,0.95374 -0.28453,1.90649 -0.10805,1.69685 -0.0975,1.73044 0.51728,1.64348 0.4192,-0.0593 0.79004,-0.42134 1.1169,-1.09042 z m 5.99296,7.769 -1.71979,-0.15277 -0.0723,-3.57187 c -0.0397,-1.96453 0.0198,-4.58391 0.13229,-5.82084 l 0.20456,-2.24896 2.59719,-0.0759 2.59718,-0.0759 -0.0836,0.86969 -0.0836,0.86968 -1.98438,0.1323 c -1.67457,0.11163 -1.98093,0.20457 -1.96232,0.59531 0.0121,0.25466 0.0419,1.05833 0.0661,1.78594 0.0422,1.26585 0.0764,1.32291 0.79375,1.32291 0.91806,0 1.08361,0.14712 0.91051,0.80907 -0.0927,0.35441 -0.36425,0.51385 -0.87522,0.51385 -0.90257,0 -0.95791,0.14463 -0.78747,2.05813 l 0.13482,1.51374 0.92604,-0.0661 c 0.50933,-0.0364 1.43206,8e-4 2.05052,0.0824 1.03414,0.13656 1.12448,0.21096 1.12448,0.92603 0,0.74552 -0.0463,0.77566 -1.12448,0.73187 -0.61846,-0.0251 -1.89838,-0.11441 -2.84427,-0.19844 z m -19.75406,-0.46359 c 0.0759,-0.26561 0.70548,-2.83084 1.39909,-5.70052 0.69361,-2.86968 1.30053,-5.17817 1.34872,-5.12998 0.0482,0.0482 0.49382,1.56267 0.9903,3.36551 0.49647,1.80284 1.07325,3.75572 1.28173,4.33972 0.20847,0.58401 0.46426,1.56628 0.56843,2.18282 0.18805,1.11305 0.18373,1.12098 -0.61141,1.12098 -0.74172,0 -0.81348,-0.0846 -0.97277,-1.14685 -0.24917,-1.66158 -0.43642,-1.86331 -1.53776,-1.6567 -0.92222,0.17301 -0.94315,0.20491 -1.02116,1.55624 -0.0749,1.29691 -0.12471,1.38476 -0.8314,1.46565 -0.62071,0.071 -0.7277,0.002 -0.61377,-0.39687 z m 3.61448,-4.81548 c 0,-1.03054 -0.33761,-2.12115 -0.69962,-2.26006 -0.39504,-0.1516 -0.67786,0.38072 -1.00749,1.89626 -0.18374,0.84481 -0.17041,0.85989 0.76004,0.85989 0.74963,0 0.94707,-0.10342 0.94707,-0.49609 z m 3.87831,2.82489 c -0.094,-1.20808 -0.17169,-3.17877 -0.17256,-4.37932 l -0.002,-2.18281 h 0.93259 0.9326 l -0.0727,4.29948 -0.0727,4.29948 -0.68733,0.0798 c -0.67968,0.0789 -0.68924,0.0554 -0.85832,-2.11666 z m 0.15659,-8.32486 c -0.47381,-0.19118 -0.41356,-1.58846 0.0766,-1.77655 0.52695,-0.20221 1.44475,0.37218 1.44475,0.90418 0,0.79096 -0.71171,1.19907 -1.52135,0.87237 z m -3.24263,-3.63177 c -7.9e-4,-0.16172 -0.12547,-0.74053 -0.27702,-1.28623 -0.2702,-0.97297 -0.30049,-0.99219 -1.56397,-0.99219 -1.28088,0 -1.29062,0.007 -1.66159,1.12448 -0.3245,0.97789 -0.48402,1.1354 -1.22357,1.2082 l -0.85041,0.0837 0.36465,-0.87748 c 0.20056,-0.48261 0.94054,-2.39552 1.64439,-4.25091 0.70385,-1.855393 1.36153,-3.373433 1.4615,-3.373433 0.36999,0 3.43042,7.331273 3.43042,8.217583 0,0.10306 -0.29766,0.24429 -0.66146,0.31384 -0.38421,0.0734 -0.66208,0.003 -0.66294,-0.16759 z m -0.91649,-4.32894 c -0.18412,-0.73772 -0.85488,-1.653643 -1.21102,-1.653643 -0.10719,0 -0.27299,0.327423 -0.36843,0.727603 -0.0954,0.40018 -0.23544,0.93596 -0.3111,1.19063 -0.11557,0.38901 0.039,0.46302 0.96729,0.46302 1.07292,0 1.0996,-0.021 0.92326,-0.72761 z m -10.723694,3.65466 c 0,-0.72847 0.05383,-0.76854 0.859897,-0.64007 0.47294,0.0754 1.18732,0.0113 1.5875,-0.14238 0.624557,-0.23985 0.727597,-0.42811 0.727597,-1.3293 0,-1.11181 -0.673197,-1.87364 -1.655677,-1.87364 -1.828322,0 -2.456308,-2.297583 -0.969851,-3.548353 0.690871,-0.58133 1.071201,-0.68498 2.513538,-0.68498 1.6364,0 1.69949,0.0246 1.69949,0.66146 0,0.60394 -0.0998,0.66146 -1.14815,0.66146 -0.935197,0 -1.197667,0.11041 -1.415077,0.59531 -0.39081,0.87158 -0.16304,1.2186 0.928837,1.415183 1.47934,0.26634 1.63439,0.50202 1.63439,2.48414 0,1.4042 -0.11674,1.93242 -0.54837,2.48114 -0.49813,0.63327 -0.7163,0.69714 -2.381247,0.69714 h -1.832877 z m 14.995164,0.58729 c -0.0745,-0.12051 -0.16761,-1.58562 -0.20695,-3.2558 l -0.0715,-3.036673 0.71974,-0.0845 0.71973,-0.0845 -0.0744,3.256303 c -0.0637,2.78445 -0.13795,3.26847 -0.51279,3.34031 -0.24109,0.0462 -0.49929,-0.0146 -0.57377,-0.1351 z m 3.79613,-3.84507 0.006,-3.770323 0.52966,0.66146 c 0.29132,0.36381 1.08975,1.411333 1.77429,2.327843 1.11964,1.49905 1.27842,1.62018 1.58112,1.20621 0.21198,-0.2899 0.3365,-1.32265 0.3365,-2.790873 0,-2.30967 0.006,-2.33068 0.66146,-2.33068 0.64938,0 0.66146,0.0379 0.66146,2.07675 0,1.142213 -0.0765,2.981243 -0.16991,4.086723 l -0.1699,2.00998 -1.84073,-1.44027 c -1.01241,-0.79215 -1.92843,-1.38608 -2.03561,-1.31984 -0.10718,0.0662 -0.14015,0.78034 -0.0733,1.58688 0.11918,1.43718 0.10775,1.46645 -0.57262,1.46645 h -0.69422 l 0.006,-3.77031 z m 8.90176,3.59392 c -0.097,-0.097 -0.17639,-1.51785 -0.17639,-3.15742 v -2.981043 l -0.72534,-0.0837 c -0.85311,-0.0985 -1.07426,-0.75987 -0.4596,-1.37452 0.59874,-0.59875 3.44132,-0.60686 3.67017,-0.0105 0.35181,0.91679 0.16524,1.36649 -0.63315,1.52617 l -0.79375,0.15875 v 2.630813 c 0,3.11689 -0.22326,3.95013 -0.88194,3.29145 z m -38.607117,-0.28093 -0.992188,-0.10379 v -4.08507 -4.085073 h 2.645834 c 2.147218,0 2.645833,0.073 2.645833,0.38757 0,0.5885 -0.876562,0.93535 -2.363856,0.93535 h -1.340311 v 0.89773 c 0,0.91734 0.332677,1.218933 1.344556,1.218933 0.331139,0 0.507528,0.18391 0.507528,0.52917 0,0.42837 -0.176389,0.52917 -0.926042,0.52917 -0.553648,0 -0.934182,0.13299 -0.946285,0.33073 -0.01113,0.1819 -0.06201,0.5519 -0.11306,0.82222 -0.173879,0.92076 0.14305,1.15568 1.756424,1.30198 1.831083,0.16604 1.926675,0.22059 1.690499,0.96471 -0.149523,0.47111 -0.369056,0.54279 -1.545512,0.50463 -0.754178,-0.0245 -1.817717,-0.0912 -2.36342,-0.14826 z m -8.341267,-4.10674 0.07304,-4.034903 1.333116,0.0322 c 1.71333,0.0414 3.414449,0.89997 3.990549,2.01402 0.617534,1.194183 0.599098,3.302183 -0.03829,4.378013 -0.58323,0.98442 -2.303559,1.64553 -4.281956,1.64553 h -1.149494 z m 3.174091,2.43564 c 3.036116,-0.84322 1.898012,-5.015333 -1.368123,-5.015333 h -0.806889 v 1.819013 c 0,3.49212 0.176418,3.75138 2.175012,3.19632 z m 30.534833,-6.213283 c -0.29849,-0.77785 -0.17915,-0.91872 0.77835,-0.91872 0.82808,0 0.93402,0.0734 0.85989,0.59532 -0.10567,0.74403 -1.38028,0.99565 -1.63824,0.3234 z m 11.63415,-3.6307 c -0.0793,-0.76398 -0.21799,-2.54992 -0.30832,-3.96875 l -0.16423,-2.57968 h 0.67801 0.67801 l 0.0743,3.22668 0.0743,3.22667 1.52136,-0.0709 1.52135,-0.0709 v 0.81293 0.81294 h -1.96533 -1.96534 z m -43.370857,-0.10694 c -0.445758,-0.63241 -0.906612,-1.14983 -1.02412,-1.14983 -0.117508,0 -0.213651,0.47625 -0.213651,1.05834 0,0.88194 -0.08819,1.05833 -0.529167,1.05833 -0.456375,0 -0.529167,-0.17639 -0.529167,-1.28227 0,-0.70525 -0.07828,-2.38511 -0.173959,-3.73303 l -0.17396,-2.45076 2.309247,0.095 c 1.970247,0.0811 2.355064,0.17269 2.621355,0.62417 0.964748,1.63569 0.67343,2.78393 -0.828673,3.26626 -0.609497,0.19571 -1.108176,0.44684 -1.108176,0.55806 0,0.11122 0.47625,0.74327 1.058333,1.40456 0.582083,0.66128 1.058333,1.25984 1.058333,1.33013 0,0.0703 -0.372583,0.18249 -0.827962,0.24933 -0.733213,0.10761 -0.920711,-0.0101 -1.638433,-1.0283 z m 1.05243,-3.48235 c 0.306878,-0.16423 0.623469,-0.46932 0.703536,-0.67798 0.293955,-0.76603 -1.430161,-1.67159 -2.615958,-1.37397 -0.52249,0.13114 -0.642363,0.32905 -0.642363,1.06058 0,1.46392 0.182163,1.69925 1.146916,1.48167 0.46745,-0.10543 1.100991,-0.32606 1.407869,-0.4903 z m 18.78618,2.14525 c -0.0944,-1.42497 -0.17218,-3.1564 -0.17293,-3.84762 l -0.001,-1.25677 h 1.852087 c 1.77708,0 1.85208,0.0256 1.85208,0.63315 0,0.69629 -0.43512,0.95435 -1.60914,0.95435 -0.70602,0 -0.77211,0.0793 -0.77211,0.92604 0,0.90399 0.0252,0.92604 1.05833,0.92604 0.9525,0 1.05834,0.0661 1.05834,0.66146 0,0.57956 -0.11466,0.66146 -0.92605,0.66146 -0.84852,0 -0.92604,0.0652 -0.92604,0.77853 0,0.72678 0.0748,0.78395 1.12448,0.8599 0.92097,0.0666 1.12448,0.17713 1.12448,0.61052 0,0.46788 -0.20216,0.53813 -1.7453,0.60648 l -1.745297,0.0773 z m 6.346097,1.98709 c -0.0897,-0.33505 -0.1648,-1.7885 -0.16679,-3.22989 -0.004,-2.6179 -0.003,-2.62017 0.5341,-2.13407 0.29574,0.26764 0.79094,0.91117 1.10044,1.43007 0.65227,1.09354 1.80332,2.39866 2.11552,2.39866 0.1183,0 0.21508,-1.23742 0.21508,-2.74982 0,-2.2634 0.074,-2.77823 0.41852,-2.91042 1.04868,-0.40242 1.07713,-0.29516 0.95733,3.60972 -0.0636,2.07367 -0.15753,3.81637 -0.2087,3.87267 -0.0512,0.0563 -0.84904,-0.39019 -1.77302,-0.99219 -0.92399,-0.602 -1.76901,-1.09455 -1.87782,-1.09455 -0.10882,0 -0.16005,0.50602 -0.11385,1.12448 0.0729,0.97608 0.01,1.13504 -0.47682,1.20451 -0.39828,0.0568 -0.60812,-0.0965 -0.72399,-0.52917 z m 9.35272,-0.80763 c -0.001,-0.76398 -0.0772,-2.18643 -0.16924,-3.16099 -0.16508,-1.74768 -0.17863,-1.77303 -0.99031,-1.85209 -0.67693,-0.0659 -0.8378,-0.20925 -0.90666,-0.80775 l -0.0837,-0.72761 h 2.39882 2.39883 v 0.79375 c 0,0.70556 -0.0882,0.79375 -0.79375,0.79375 h -0.79375 v 3.175 c 0,2.99861 -0.0294,3.175 -0.52917,3.175 -0.46173,0 -0.52941,-0.17701 -0.53105,-1.38906 z m 2.92073,0.55122 c 0.008,-0.84031 1.31112,-5.59698 1.6171,-5.90297 0.12676,-0.12676 1.81703,5.98359 1.81487,6.56078 -5.3e-4,0.11926 -0.26871,0.17879 -0.59613,0.13229 -0.45896,-0.0652 -0.61458,-0.28518 -0.67942,-0.96049 -0.0699,-0.72857 -0.18095,-0.86212 -0.65975,-0.79375 -0.40113,0.0573 -0.61628,0.31622 -0.70965,0.85411 -0.19498,1.12324 -0.79751,1.20748 -0.78702,0.11003 z m 2.37282,-2.28659 c 0,-0.40875 -0.16617,-0.97043 -0.36927,-1.24819 -0.348,-0.47592 -0.39407,-0.44565 -0.7998,0.52539 -0.45884,1.09815 -0.28735,1.45324 0.70605,1.46193 0.33204,0.003 0.46302,-0.20618 0.46302,-0.73913 z m -35.354202,2.47413 c -0.08141,-0.21214 -0.107125,-1.373 -0.05715,-2.57968 0.08989,-2.17057 0.09862,-2.19487 0.817775,-2.2777 l 0.726913,-0.0837 v 2.66341 2.66341 h -0.669763 c -0.368369,0 -0.736368,-0.17357 -0.817775,-0.38572 z m 4.69633,-2.72274 c 1.46608,-4.2518 1.351794,-4.13068 2.36291,-2.50413 0.471567,0.75859 0.939738,1.37926 1.04038,1.37926 0.100641,0 0.512767,-0.60592 0.915836,-1.34649 0.403068,-0.74057 0.823879,-1.24659 0.935134,-1.12448 0.202338,0.22207 2.120281,5.8682 2.120281,6.24178 0,0.10886 -0.229571,0.19794 -0.510157,0.19794 -0.376406,0 -0.653875,-0.38413 -1.058333,-1.46514 -0.301497,-0.80582 -0.548177,-1.5727 -0.548177,-1.70417 0,-0.67116 -0.595439,-0.45278 -1.100783,0.40371 l -0.572041,0.96954 -0.827055,-0.98512 -0.827056,-0.98512 -0.632073,2.01544 c -0.618974,1.97367 -0.650089,2.01544 -1.501391,2.01544 h -0.869319 z m -4.650656,-3.86052 c -0.494122,-0.36131 -0.492901,-0.37649 0.05387,-0.66911 0.916116,-0.49029 1.435811,-0.3766 1.34025,0.2932 -0.102137,0.7159 -0.706351,0.87882 -1.39412,0.37591 z m -7.628684,-2.72744 c -0.07809,-0.12636 -0.214515,-1.77659 -0.30316,-3.66718 -0.08864,-1.89059 -0.228517,-4.71736 -0.310825,-6.28171 l -0.149653,-2.84427 h 0.650686 c 0.888445,0 0.981416,0.61721 0.981416,6.51536 v 4.86172 h 1.5875 c 1.513028,0 1.5875,0.0307 1.5875,0.65539 0,0.58653 -0.104252,0.6521 -0.992188,0.62404 -0.545703,-0.0172 -1.423535,0.0581 -1.950738,0.16752 -0.527203,0.10938 -1.022445,0.0955 -1.100538,-0.0309 z m 20.646065,-0.28764 -1.256767,-0.0991 -0.05512,-4.8803 c -0.03032,-2.68416 -0.06008,-5.44584 -0.06615,-6.13706 l -0.01102,-1.25677 1.389057,-0.08 c 1.31321,-0.0756 1.38907,-0.0452 1.38907,0.55703 0,0.4919 -0.1959,0.69298 -0.8599,0.8827 -0.84888,0.24254 -0.8609,0.26844 -0.938128,2.02265 l -0.07823,1.77696 h 0.805838 c 0.71494,0 0.80584,0.0876 0.80584,0.77618 0,0.65005 -0.11823,0.78978 -0.7276,0.85989 -0.72163,0.083 -0.72761,0.10001 -0.72761,2.0681 v 1.98437 l 1.05834,0.1323 c 0.918707,0.11484 1.069377,0.22828 1.142047,0.85989 0.0557,0.48417 -0.0328,0.71165 -0.26458,0.67992 -0.191567,-0.0262 -0.913847,-0.0923 -1.605077,-0.14679 z m 8.148227,-0.13625 c -0.0569,-0.1819 -0.17461,-2.23573 -0.26167,-4.56407 -0.0871,-2.32833 -0.23077,-5.037 -0.31937,-6.01927 l -0.16108,-1.78593 h 2.01856 c 1.81348,0 2.01856,0.0516 2.01856,0.50752 0,1.06114 -0.29212,1.34456 -1.38584,1.34456 h -1.06464 l 0.16399,0.99219 c 0.0902,0.5457 0.16531,1.20054 0.16691,1.45521 0.002,0.33743 0.21821,0.46302 0.79667,0.46302 0.70555,0 0.79375,0.0882 0.79375,0.79375 0,0.71366 -0.084,0.79375 -0.83201,0.79375 h -0.83201 l 0.16867,1.78593 c 0.0928,0.98227 0.16951,2.05834 0.17055,2.39127 0.002,0.50207 0.12599,0.59233 0.72948,0.52916 0.64638,-0.0676 0.73686,0.0198 0.81052,0.78374 l 0.0829,0.8599 h -1.48028 c -0.95269,0 -1.51712,-0.11788 -1.58367,-0.33073 z m 4.35334,0.16374 c 0,-0.0918 0.43597,-1.64983 0.96883,-3.4622 l 0.96883,-3.29522 -0.70425,-2.43822 c -0.81292,-2.81449 -0.82945,-2.96813 -0.33944,-3.15617 0.26741,-0.10261 0.52469,0.45496 0.96365,2.08836 0.32936,1.2256 0.67434,2.22835 0.76662,2.22835 0.0923,0 0.34325,-1.10132 0.55771,-2.44739 0.35002,-2.19694 0.45084,-2.45605 0.98523,-2.53195 0.43492,-0.0618 0.59532,0.0485 0.59532,0.40927 0,0.702 -1.0398,5.37768 -1.29885,5.84059 -0.13526,0.24169 0.12867,1.33938 0.70482,2.93137 1.33182,3.67995 1.30721,3.47103 0.40882,3.47103 -0.7707,0 -0.77936,-0.0174 -1.2495,-2.51354 -0.26038,-1.38245 -0.51047,-2.51354 -0.55576,-2.51354 -0.0792,0 -0.24607,0.73678 -0.91396,4.03489 -0.29075,1.4357 -0.35172,1.52136 -1.08308,1.52136 -0.42625,0 -0.77499,-0.0752 -0.77499,-0.16699 z m -27.516668,-3.96121 v -3.86362 l -1.063387,-2.26921 c -0.810539,-1.72964 -0.983545,-2.32077 -0.727604,-2.48605 0.693862,-0.44809 1.094885,-0.0307 1.761099,1.83301 0.377138,1.05503 0.761652,1.91823 0.854475,1.91823 0.09282,0 0.388547,-0.84736 0.657166,-1.88304 0.478774,-1.84593 0.754884,-2.21966 1.508573,-2.04194 0.295255,0.0696 0.16396,0.65131 -0.614997,2.72467 -0.902335,2.40176 -1.007107,2.96049 -1.178335,6.28386 -0.172406,3.34622 -0.229638,3.6477 -0.692465,3.6477 -0.473278,0 -0.504525,-0.23929 -0.504525,-3.86361 z m 5.462546,3.59033 c -0.56086,-0.0999 -1.12598,-0.3471 -1.255822,-0.54944 -1.212494,-1.88955 -0.878628,-9.20855 0.504828,-11.06684 0.668016,-0.8973 0.94283,-0.92823 1.788008,-0.20124 0.622455,0.53541 0.755229,0.88672 0.854658,2.26131 0.130918,1.80992 -0.297131,2.26189 -0.602182,0.63583 -0.298039,-1.58869 -1.232538,-1.89473 -1.69907,-0.55644 -0.320665,0.91986 -0.386522,4.47752 -0.119013,6.42921 0.313637,2.28824 1.68063,1.72015 1.68063,-0.69843 0,-0.93142 0.102158,-1.27234 0.38126,-1.27234 0.584258,0 0.720435,0.40897 0.712161,2.13883 -0.01286,2.68817 -0.416055,3.20522 -2.245458,2.87955 z m 3.627888,-1.35303 c 0.09349,-0.89447 0.169983,-3.56535 0.169983,-5.93529 0,-4.7484 -0.148739,-4.35341 1.785937,-4.74279 0.747908,-0.15053 0.859896,-0.10207 0.859896,0.37208 0,0.36083 -0.223641,0.60128 -0.661458,0.71116 -0.590863,0.1483 -0.661459,0.30184 -0.661459,1.43861 0,0.69993 -0.075,1.46803 -0.166656,1.7069 -0.115392,0.3007 0.0067,0.47962 0.396875,0.58166 0.785169,0.20533 0.815316,1.67315 0.03436,1.67315 -0.48213,0 -0.529167,0.17639 -0.529167,1.98437 v 1.98438 h 0.79375 c 0.730754,0 0.79375,0.0735 0.79375,0.92604 v 0.92604 h -1.4929 -1.4929 z m 29.253904,-0.14286 c -0.0111,-0.99149 -0.0547,-1.9813 -0.0969,-2.19958 -0.0422,-0.21828 -0.12236,-2.3614 -0.17819,-4.7625 l -0.10151,-4.36562 0.824,-0.0802 c 0.73694,-0.0718 0.84166,0.008 0.99101,0.75477 0.18883,0.94414 0.0471,1.30983 -0.50771,1.30983 -0.27547,0 -0.38126,0.33036 -0.38126,1.19063 0,0.83733 0.10861,1.19062 0.36602,1.19062 0.40488,0 0.64156,0.67346 0.48817,1.38907 -0.0546,0.25466 -0.25637,0.46302 -0.44841,0.46302 -0.49738,0 -0.56404,0.39707 -0.4575,2.72499 0.0888,1.94124 0.12845,2.05884 0.66839,1.98437 0.50642,-0.0698 0.57395,0.0454 0.57395,0.97918 0,1.00062 -0.0469,1.06285 -0.85989,1.14124 l -0.8599,0.0829 -0.0202,-1.8027 z m -4.04332,-1.67041 c -0.0934,-1.74625 -0.24617,-4.60375 -0.33954,-6.35 l -0.16978,-3.175 h 0.93113 c 0.51212,0 1.05425,0.14883 1.20474,0.33073 0.15049,0.1819 0.31389,1.52135 0.36312,2.97656 0.0886,2.61825 0.0829,2.64677 -0.54328,2.7353 l -0.6328,0.0895 0.14183,3.28397 c 0.12986,3.00707 0.10272,3.28398 -0.32191,3.28398 -0.40673,0 -0.4846,-0.3903 -0.63351,-3.175 z m 1.31343,-4.63579 c 0.75918,-1.15866 -0.0103,-4.01724 -0.92864,-3.44969 -0.16821,0.10395 -0.28998,1.00594 -0.28998,2.14797 0,2.16658 0.38352,2.57624 1.21862,1.30172 z m 5.92513,1.3285 c 0,-0.60984 0.0951,-0.66146 1.21894,-0.66146 1.0028,0 1.19045,0.0742 1.05833,0.41851 -0.0883,0.23019 -0.1606,0.52784 -0.1606,0.66146 0,0.13362 -0.47625,0.24295 -1.05833,0.24295 -0.9525,0 -1.05834,-0.0661 -1.05834,-0.66146 z"
       id="path161" />
  </g>
</svg>
